<svg width="100" height="100" viewBox="0 0 100 100" fill="none" xmlns="http://www.w3.org/2000/svg">
<circle cx="50" cy="50" r="50" fill="white"/>
<path d="M49.6 70.44C48.512 70.44 47.632 69.96 46.96 69C46.32 68.008 46 66.872 46 65.592C46 64.664 46.144 63.592 46.432 62.376C46.752 61.16 47.136 59.96 47.584 58.776C48.032 57.592 48.496 56.616 48.976 55.848C49.456 55.08 49.872 54.696 50.224 54.696C50.384 54.696 50.656 54.792 51.04 54.984C51.424 55.144 51.744 55.368 52 55.656C51.648 56.2 51.216 57.032 50.704 58.152C50.192 59.272 49.744 60.472 49.36 61.752C48.976 63.032 48.784 64.216 48.784 65.304C48.784 65.56 48.816 65.96 48.88 66.504C48.944 67.016 49.104 67.48 49.36 67.896C49.616 68.312 50 68.52 50.512 68.52C51.12 68.52 51.744 68.216 52.384 67.608C53.024 66.968 53.664 66.152 54.304 65.16C54.976 64.168 55.616 63.096 56.224 61.944C56.832 60.792 57.392 59.688 57.904 58.632C58.448 57.576 58.896 56.696 59.248 55.992C59.44 56.024 59.712 56.088 60.064 56.184C60.448 56.28 60.784 56.408 61.072 56.568C61.392 56.728 61.552 56.952 61.552 57.24C61.552 57.368 61.392 57.8 61.072 58.536C60.752 59.24 60.368 60.12 59.92 61.176C59.504 62.2 59.136 63.24 58.816 64.296C58.496 65.352 58.336 66.28 58.336 67.08C58.336 67.656 58.448 68.12 58.672 68.472C58.928 68.824 59.344 69 59.92 69C60.592 69 61.408 68.696 62.368 68.088C63.328 67.48 64.304 66.6 65.296 65.448C66.288 64.264 67.168 62.856 67.936 61.224L68.56 61.656C67.888 63.384 67.008 64.92 65.92 66.264C64.832 67.576 63.68 68.6 62.464 69.336C61.248 70.072 60.064 70.44 58.912 70.44C58.08 70.44 57.408 70.28 56.896 69.96C56.416 69.64 56.064 69.208 55.84 68.664C55.648 68.12 55.552 67.528 55.552 66.888C55.552 66.504 55.584 66.12 55.648 65.736C55.712 65.32 55.792 64.904 55.888 64.488C55.312 65.544 54.688 66.536 54.016 67.464C53.344 68.36 52.64 69.08 51.904 69.624C51.168 70.168 50.4 70.44 49.6 70.44ZM72.0869 71.448C70.5829 71.448 69.3829 71.112 68.4869 70.44C67.6229 69.8 67.0149 69 66.6629 68.04C66.2789 67.08 66.0869 66.12 66.0869 65.16C66.0869 64.2 66.2149 63.464 66.4709 62.952C66.7269 62.44 67.0309 62.056 67.3829 61.8C67.7669 61.544 68.1189 61.352 68.4389 61.224C68.7909 61.096 69.0309 60.968 69.1589 60.84C70.1189 59.784 70.9989 58.68 71.7989 57.528C72.5989 56.376 73.3029 55.16 73.9109 53.88V53.304C73.9109 52.12 74.1029 51.288 74.4869 50.808C74.9029 50.296 75.3349 50.04 75.7829 50.04C76.0389 50.04 76.2309 50.104 76.3589 50.232C76.4869 50.36 76.5509 50.504 76.5509 50.664C76.5509 50.824 76.5029 51.08 76.4069 51.432C76.3109 51.784 76.2629 52.232 76.2629 52.776C76.2629 53.832 76.4709 54.984 76.8869 56.232C77.3029 57.448 77.7189 58.744 78.1349 60.12C78.5509 61.464 78.7589 62.872 78.7589 64.344C78.7589 64.76 78.7269 65.176 78.6629 65.592C78.6309 65.976 78.5669 66.344 78.4709 66.696C79.5909 66.504 80.6469 66.008 81.6389 65.208C82.6309 64.376 83.5909 63.064 84.5189 61.272L84.9509 61.752C84.3429 63.512 83.4309 64.856 82.2149 65.784C80.9989 66.68 79.6709 67.24 78.2309 67.464C77.7189 68.84 76.9029 69.848 75.7829 70.488C74.6949 71.128 73.4629 71.448 72.0869 71.448ZM72.1829 69.768C72.5669 69.768 73.0789 69.64 73.7189 69.384C74.3589 69.128 74.8549 68.472 75.2069 67.416C73.8629 67.16 72.6629 66.632 71.6069 65.832C70.5829 65.032 69.8149 64.232 69.3029 63.432C68.5989 63.464 68.2469 64.024 68.2469 65.112C68.2469 66.264 68.5829 67.336 69.2549 68.328C69.9589 69.288 70.9349 69.768 72.1829 69.768ZM75.4469 66.648C75.5109 66.328 75.5589 65.992 75.5909 65.64C75.6229 65.288 75.6389 64.872 75.6389 64.392C75.6389 62.888 75.4469 61.4 75.0629 59.928C74.7109 58.424 74.4069 57.016 74.1509 55.704C73.4149 56.92 72.6309 58.088 71.7989 59.208C70.9989 60.296 70.2309 61.208 69.4949 61.944C69.9749 62.968 70.7109 63.928 71.7029 64.824C72.7269 65.72 73.9749 66.328 75.4469 66.648Z" fill="black"/>
<path d="M29.24 70.976C27.416 70.976 25.848 70.592 24.536 69.824C23.256 69.056 22.616 67.936 22.616 66.464C22.616 65.632 22.84 64.896 23.288 64.256C23.768 63.648 24.504 63.184 25.496 62.864C25.368 63.344 25.272 63.808 25.208 64.256C25.144 64.704 25.112 65.104 25.112 65.456C25.112 66.768 25.464 67.808 26.168 68.576C26.872 69.376 27.912 69.776 29.288 69.776C30.568 69.776 31.704 69.456 32.696 68.816C33.72 68.176 34.6 67.328 35.336 66.272C36.072 65.248 36.696 64.128 37.208 62.912C37.72 61.696 38.152 60.496 38.504 59.312C38.856 58.128 39.128 57.088 39.32 56.192C39.576 55.104 39.864 53.696 40.184 51.968C40.536 50.208 40.92 48.336 41.336 46.352C40.056 48.784 38.568 50.8 36.872 52.4C35.208 53.968 33.224 54.752 30.92 54.752C29.032 54.752 27.688 54.224 26.888 53.168C26.088 52.08 25.688 50.704 25.688 49.04C25.688 47.792 25.848 46.432 26.168 44.96C26.52 43.488 26.904 42.016 27.32 40.544C27.736 39.04 28.104 37.6 28.424 36.224C28.776 34.848 28.952 33.616 28.952 32.528C28.952 31.504 28.744 30.624 28.328 29.888C27.944 29.152 27.24 28.784 26.216 28.784C25.32 28.784 24.552 29.072 23.912 29.648C23.272 30.192 22.728 30.896 22.28 31.76C21.864 32.624 21.544 33.536 21.32 34.496C21.128 35.424 21.032 36.288 21.032 37.088C21.032 37.536 21.064 37.968 21.128 38.384C21.192 38.8 21.288 39.152 21.416 39.44C20.2 39.44 19.336 39.12 18.824 38.48C18.344 37.808 18.104 37.024 18.104 36.128C18.104 35.136 18.344 34.128 18.824 33.104C19.304 32.08 19.96 31.152 20.792 30.32C21.656 29.456 22.632 28.768 23.72 28.256C24.84 27.712 26.024 27.44 27.272 27.44C28.488 27.44 29.464 27.696 30.2 28.208C30.936 28.688 31.464 29.296 31.784 30.032C32.104 30.768 32.264 31.52 32.264 32.288C32.264 33.184 32.088 34.304 31.736 35.648C31.416 36.96 31.048 38.352 30.632 39.824C30.216 41.264 29.848 42.704 29.528 44.144C29.208 45.584 29.048 46.944 29.048 48.224C29.048 49.6 29.304 50.72 29.816 51.584C30.36 52.416 31.224 52.832 32.408 52.832C33.528 52.832 34.584 52.48 35.576 51.776C36.568 51.072 37.496 50.128 38.36 48.944C39.224 47.76 40.008 46.464 40.712 45.056C41.416 43.648 42.04 42.256 42.584 40.88C43 39.152 43.432 37.488 43.88 35.888C44.36 34.256 44.84 32.816 45.32 31.568C45.8 30.288 46.296 29.28 46.808 28.544C47.32 27.808 47.832 27.44 48.344 27.44C48.664 27.44 49.08 27.584 49.592 27.872C50.104 28.128 50.584 28.496 51.032 28.976C50.36 30.032 49.784 31.04 49.304 32C48.824 32.928 48.36 33.952 47.912 35.072C47.496 36.192 47.064 37.52 46.616 39.056C46.168 40.56 45.656 42.416 45.08 44.624C44.536 46.832 43.88 49.52 43.112 52.688C42.696 54.32 42.248 56 41.768 57.728C41.288 59.456 40.696 61.104 39.992 62.672C39.32 64.24 38.504 65.648 37.544 66.896C36.584 68.144 35.416 69.136 34.04 69.872C32.696 70.608 31.096 70.976 29.24 70.976Z" fill="black"/>
</svg>
